<mxfile host="app.diagrams.net" agent="Mozilla/5.0 (Macintosh; Intel Mac OS X 10_15_7) AppleWebKit/537.36 (KHTML, like Gecko) Chrome/130.0.0.0 Safari/537.36" version="24.9.1">
  <diagram name="Горизонтальний" id="47RMHWLgdR8SnZdTCYjl">
    <mxGraphModel dx="1420" dy="-341" grid="1" gridSize="3.937" guides="1" tooltips="1" connect="1" arrows="1" fold="1" page="1" pageScale="1" pageWidth="1654" pageHeight="1169" math="0" shadow="0">
      <root>
        <mxCell id="0" />
        <mxCell id="1" parent="0" />
        <UserObject label="" tags="Фон" id="aCWiB2YqxUfsmSvsJaBf-1">
          <mxCell style="vsdxID=1;fillColor=none;gradientColor=none;shape=stencil(nZBLDoAgDERP0z3SIyjew0SURgSD+Lu9kMZoXLhwN9O+tukAlrNpJg1SzDH4QW/URgNYgZTkjA4UkwJUgGXng+6DX1zLfmoymdXo17xh5zmRJ6Q42BWCfc2oJfdAr+Yv+AP9Cb7OJ3H/2JG1HNGz/84klThPVCc=);strokeColor=#000000;strokeWidth=2;points=[];labelBackgroundColor=none;rounded=0;html=1;whiteSpace=wrap;" parent="1" vertex="1">
            <mxGeometry x="78.74" y="1185.04" width="1555.12" height="1133.85" as="geometry" />
          </mxCell>
        </UserObject>
        <UserObject label="" tags="Фон" id="aCWiB2YqxUfsmSvsJaBf-2">
          <mxCell style="vsdxID=2;edgeStyle=none;startArrow=none;endArrow=none;startSize=5;endSize=5;strokeWidth=2;strokeColor=#000000;spacingTop=0;spacingBottom=0;spacingLeft=0;spacingRight=0;verticalAlign=middle;html=1;labelBackgroundColor=#ffffff;rounded=0;entryX=1;entryY=0.866;entryDx=0;entryDy=0;entryPerimeter=0;" parent="1" target="aCWiB2YqxUfsmSvsJaBf-1" edge="1">
            <mxGeometry relative="1" as="geometry">
              <mxPoint as="offset" />
              <Array as="points" />
              <mxPoint x="877" y="2168" as="sourcePoint" />
              <mxPoint x="1617" y="2168" as="targetPoint" />
            </mxGeometry>
          </mxCell>
        </UserObject>
        <UserObject label="" tags="Фон" id="aCWiB2YqxUfsmSvsJaBf-3">
          <mxCell style="vsdxID=3;fillColor=#FFFFFF;gradientColor=none;shape=stencil(jU9bCoAwDDtN/2eLJ/BxD8HphrrJnK/bu9EPpyD4l7RJSICKRTWzBBSLd3aQu269AioBURslnfYBAVVARWed7J1dTct8bqIyosluMeFgn4gOFGfKahaO2nwKMf+rzMQjNIC7Cq9If+/a4cSTqboA);strokeColor=#000000;strokeWidth=2;points=[];labelBackgroundColor=#ffffff;rounded=0;html=1;whiteSpace=wrap;" parent="1" vertex="1">
            <mxGeometry x="877" y="2168" width="1" height="150.89" as="geometry" />
          </mxCell>
        </UserObject>
        <UserObject label="" tags="Фон" id="aCWiB2YqxUfsmSvsJaBf-4">
          <mxCell style="vsdxID=4;edgeStyle=none;startArrow=none;endArrow=none;startSize=5;endSize=5;strokeWidth=2;strokeColor=#000000;spacingTop=0;spacingBottom=0;spacingLeft=0;spacingRight=0;verticalAlign=middle;html=1;labelBackgroundColor=#ffffff;rounded=0;" parent="1" edge="1">
            <mxGeometry relative="1" as="geometry">
              <mxPoint as="offset" />
              <Array as="points" />
              <mxPoint x="877" y="2248" as="sourcePoint" />
              <mxPoint x="1634" y="2249" as="targetPoint" />
            </mxGeometry>
          </mxCell>
        </UserObject>
        <UserObject label="" tags="Фон" id="aCWiB2YqxUfsmSvsJaBf-5">
          <mxCell style="vsdxID=5;fillColor=#FFFFFF;gradientColor=none;shape=stencil(jU9bCoAwDDtN/2eLJ/BxD8HphrrJnK/bu9EPpyD4l7RJSICKRTWzBBSLd3aQu269AioBURslnfYBAVVARWed7J1dTct8bqIyosluMeFgn4gOFGfKahaO2nwKMf+rzMQjNIC7Cq9If+/a4cSTqboA);strokeColor=#000000;strokeWidth=2;points=[];labelBackgroundColor=#ffffff;rounded=0;html=1;whiteSpace=wrap;" parent="1" vertex="1">
            <mxGeometry x="1137" y="2168" width="1" height="150.89" as="geometry" />
          </mxCell>
        </UserObject>
        <UserObject label="" tags="Фон" id="aCWiB2YqxUfsmSvsJaBf-6">
          <mxCell style="vsdxID=6;fillColor=#FFFFFF;gradientColor=none;shape=stencil(jU9bCoAwDDtN/2eLJ/BxD8HphrrJnK/bu9EPpyD4l7RJSICKRTWzBBSLd3aQu269AioBURslnfYBAVVARWed7J1dTct8bqIyosluMeFgn4gOFGfKahaO2nwKMf+rzMQjNIC7Cq9If+/a4cSTqboA);strokeColor=#000000;strokeWidth=2;points=[];labelBackgroundColor=#ffffff;rounded=0;html=1;whiteSpace=wrap;" parent="1" vertex="1">
            <mxGeometry x="945" y="2168" width="1" height="150.89" as="geometry" />
          </mxCell>
        </UserObject>
        <UserObject label="" tags="Фон" id="aCWiB2YqxUfsmSvsJaBf-7">
          <mxCell style="vsdxID=7;fillColor=#FFFFFF;gradientColor=none;shape=stencil(jU9bCoAwDDtN/2eLJ/BxD8HphrrJnK/bu9EPpyD4l7RJSICKRTWzBBSLd3aQu269AioBURslnfYBAVVARWed7J1dTct8bqIyosluMeFgn4gOFGfKahaO2nwKMf+rzMQjNIC7Cq9If+/a4cSTqboA);strokeColor=#000000;strokeWidth=2;points=[];labelBackgroundColor=#ffffff;rounded=0;html=1;whiteSpace=wrap;" parent="1" vertex="1">
            <mxGeometry x="1037" y="2168" width="1" height="80" as="geometry" />
          </mxCell>
        </UserObject>
        <UserObject label="" tags="Фон" id="aCWiB2YqxUfsmSvsJaBf-8">
          <mxCell style="vsdxID=8;fillColor=#FFFFFF;gradientColor=none;shape=stencil(jU9bCoAwDDtN/2eLJ/BxD8HphrrJnK/bu9EPpyD4l7RJSICKRTWzBBSLd3aQu269AioBURslnfYBAVVARWed7J1dTct8bqIyosluMeFgn4gOFGfKahaO2nwKMf+rzMQjNIC7Cq9If+/a4cSTqboA);strokeColor=#000000;strokeWidth=2;points=[];labelBackgroundColor=#ffffff;rounded=0;html=1;whiteSpace=wrap;" parent="1" vertex="1">
            <mxGeometry x="1097" y="2168" width="1" height="80" as="geometry" />
          </mxCell>
        </UserObject>
        <UserObject label="" tags="Фон" id="aCWiB2YqxUfsmSvsJaBf-9">
          <mxCell style="vsdxID=9;edgeStyle=none;startArrow=none;endArrow=none;startSize=5;endSize=5;strokeWidth=2;strokeColor=#000000;spacingTop=0;spacingBottom=0;spacingLeft=0;spacingRight=0;verticalAlign=middle;html=1;labelBackgroundColor=#ffffff;rounded=0;" parent="1" edge="1">
            <mxGeometry relative="1" as="geometry">
              <mxPoint as="offset" />
              <Array as="points" />
              <mxPoint x="877" y="2208" as="sourcePoint" />
              <mxPoint x="1137" y="2208" as="targetPoint" />
            </mxGeometry>
          </mxCell>
        </UserObject>
        <UserObject label="" tags="Фон" id="aCWiB2YqxUfsmSvsJaBf-10">
          <mxCell style="vsdxID=10;edgeStyle=none;startArrow=none;endArrow=none;startSize=5;endSize=5;strokeWidth=2;strokeColor=#000000;spacingTop=0;spacingBottom=0;spacingLeft=0;spacingRight=0;verticalAlign=middle;html=1;labelBackgroundColor=#ffffff;rounded=0;" parent="1" edge="1">
            <mxGeometry relative="1" as="geometry">
              <mxPoint as="offset" />
              <Array as="points" />
              <mxPoint x="877" y="2288" as="sourcePoint" />
              <mxPoint x="1137" y="2288" as="targetPoint" />
            </mxGeometry>
          </mxCell>
        </UserObject>
        <UserObject label="&lt;div style=&quot;font-size: 1px&quot;&gt;&lt;font style=&quot;font-size:12.7px;font-family:Times New Roman;color:#000000;direction:ltr;letter-spacing:0px;line-height:120%;opacity:1&quot;&gt;Розробив&lt;br/&gt;&lt;/font&gt;&lt;/div&gt;" tags="Фон" id="aCWiB2YqxUfsmSvsJaBf-11">
          <mxCell style="verticalAlign=middle;align=center;overflow=width;vsdxID=11;fillColor=none;gradientColor=none;shape=stencil(nZBLDoAgDERP0z3SIyjew0SURgSD+Lu9kMZoXLhwN9O+tukAlrNpJg1SzDH4QW/URgNYgZTkjA4UkwJUgGXng+6DX1zLfmoymdXo17xh5zmRJ6Q42BWCfc2oJfdAr+Yv+AP9Cb7OJ3H/2JG1HNGz/84klThPVCc=);strokeColor=none;points=[];labelBackgroundColor=none;rounded=0;html=1;whiteSpace=wrap;" parent="1" vertex="1">
            <mxGeometry x="877" y="2168" width="68" height="40" as="geometry" />
          </mxCell>
        </UserObject>
        <UserObject label="&lt;div style=&quot;font-size: 1px&quot;&gt;&lt;font style=&quot;font-size:12.7px;font-family:Times New Roman;color:#000000;direction:ltr;letter-spacing:0px;line-height:120%;opacity:1&quot;&gt;Перевірив&lt;br/&gt;&lt;/font&gt;&lt;/div&gt;" tags="Фон" id="aCWiB2YqxUfsmSvsJaBf-12">
          <mxCell style="verticalAlign=middle;align=center;overflow=width;vsdxID=12;fillColor=none;gradientColor=none;shape=stencil(nZBLDoAgDERP0z3SIyjew0SURgSD+Lu9kMZoXLhwN9O+tukAlrNpJg1SzDH4QW/URgNYgZTkjA4UkwJUgGXng+6DX1zLfmoymdXo17xh5zmRJ6Q42BWCfc2oJfdAr+Yv+AP9Cb7OJ3H/2JG1HNGz/84klThPVCc=);strokeColor=none;points=[];labelBackgroundColor=none;rounded=0;html=1;whiteSpace=wrap;" parent="1" vertex="1">
            <mxGeometry x="877" y="2208" width="68" height="40" as="geometry" />
          </mxCell>
        </UserObject>
        <UserObject label="&lt;div style=&quot;font-size: 1px&quot;&gt;&lt;font style=&quot;font-size:12.7px;font-family:Times New Roman;color:#000000;direction:ltr;letter-spacing:0px;line-height:120%;opacity:1&quot;&gt;Група&lt;br/&gt;&lt;/font&gt;&lt;/div&gt;" tags="Фон" id="aCWiB2YqxUfsmSvsJaBf-13">
          <mxCell style="verticalAlign=middle;align=center;overflow=width;vsdxID=13;fillColor=none;gradientColor=none;shape=stencil(nZBLDoAgDERP0z3SIyjew0SURgSD+Lu9kMZoXLhwN9O+tukAlrNpJg1SzDH4QW/URgNYgZTkjA4UkwJUgGXng+6DX1zLfmoymdXo17xh5zmRJ6Q42BWCfc2oJfdAr+Yv+AP9Cb7OJ3H/2JG1HNGz/84klThPVCc=);strokeColor=none;points=[];labelBackgroundColor=none;rounded=0;html=1;whiteSpace=wrap;" parent="1" vertex="1">
            <mxGeometry x="877" y="2248" width="68" height="31.52" as="geometry" />
          </mxCell>
        </UserObject>
        <UserObject label="&lt;div style=&quot;font-size: 1px&quot;&gt;&lt;font style=&quot;font-size:8.47px;font-family:Times New Roman;color:#000000;direction:ltr;letter-spacing:0px;line-height:120%;opacity:1&quot;&gt;Позначення документа&lt;br/&gt;&lt;/font&gt;&lt;/div&gt;" tags="Фон" id="aCWiB2YqxUfsmSvsJaBf-14">
          <mxCell style="verticalAlign=middle;align=center;overflow=width;vsdxID=14;fillColor=none;gradientColor=none;shape=stencil(nZBLDoAgDERP0z3SIyjew0SURgSD+Lu9kMZoXLhwN9O+tukAlrNpJg1SzDH4QW/URgNYgZTkjA4UkwJUgGXng+6DX1zLfmoymdXo17xh5zmRJ6Q42BWCfc2oJfdAr+Yv+AP9Cb7OJ3H/2JG1HNGz/84klThPVCc=);strokeColor=none;points=[];labelBackgroundColor=none;rounded=0;html=1;whiteSpace=wrap;" parent="1" vertex="1">
            <mxGeometry x="877" y="2288" width="68" height="30.89" as="geometry" />
          </mxCell>
        </UserObject>
        <UserObject label="&lt;div style=&quot;font-size: 1px&quot;&gt;&lt;font style=&quot;font-size: 12.7px; font-family: &amp;quot;Times New Roman&amp;quot;; direction: ltr; letter-spacing: 0px; line-height: 120%; opacity: 1;&quot;&gt;Писаренко А.В.&lt;/font&gt;&lt;/div&gt;" tags="Фон" id="aCWiB2YqxUfsmSvsJaBf-15">
          <mxCell style="verticalAlign=middle;align=center;overflow=width;vsdxID=15;fillColor=none;gradientColor=none;shape=stencil(nZBLDoAgDERP0z3SIyjew0SURgSD+Lu9kMZoXLhwN9O+tukAlrNpJg1SzDH4QW/URgNYgZTkjA4UkwJUgGXng+6DX1zLfmoymdXo17xh5zmRJ6Q42BWCfc2oJfdAr+Yv+AP9Cb7OJ3H/2JG1HNGz/84klThPVCc=);strokeColor=none;points=[];labelBackgroundColor=none;rounded=0;html=1;whiteSpace=wrap;" parent="1" vertex="1">
            <mxGeometry x="945" y="2208" width="92" height="40" as="geometry" />
          </mxCell>
        </UserObject>
        <UserObject label="&lt;div style=&quot;&quot;&gt;&lt;font face=&quot;Times New Roman&quot;&gt;&lt;span style=&quot;font-size: 12.7px;&quot;&gt;Гулящий І.С.&lt;/span&gt;&lt;/font&gt;&lt;/div&gt;" tags="Фон" id="aCWiB2YqxUfsmSvsJaBf-16">
          <mxCell style="verticalAlign=middle;align=center;overflow=width;vsdxID=16;fillColor=none;gradientColor=none;shape=stencil(nZBLDoAgDERP0z3SIyjew0SURgSD+Lu9kMZoXLhwN9O+tukAlrNpJg1SzDH4QW/URgNYgZTkjA4UkwJUgGXng+6DX1zLfmoymdXo17xh5zmRJ6Q42BWCfc2oJfdAr+Yv+AP9Cb7OJ3H/2JG1HNGz/84klThPVCc=);strokeColor=none;points=[];labelBackgroundColor=none;rounded=0;html=1;whiteSpace=wrap;" parent="1" vertex="1">
            <mxGeometry x="945" y="2168" width="92" height="40" as="geometry" />
          </mxCell>
        </UserObject>
        <UserObject label="&lt;div style=&quot;font-size: 1px&quot;&gt;&lt;font style=&quot;font-size: 14.11px; font-family: &amp;quot;Times New Roman&amp;quot;; direction: ltr; letter-spacing: 0px; line-height: 120%; opacity: 1;&quot;&gt;&lt;font style=&quot;letter-spacing: 0px; direction: ltr; line-height: 16.932px; opacity: 1;&quot;&gt;І&lt;/font&gt;&lt;font style=&quot;letter-spacing: 0px; direction: ltr; line-height: 16.932px; opacity: 1;&quot;&gt;А&lt;/font&gt;&lt;font style=&quot;letter-spacing: 0px; direction: ltr; line-height: 16.932px; opacity: 1;&quot;&gt;-3&lt;/font&gt;&lt;font style=&quot;letter-spacing: 0px; direction: ltr; line-height: 16.932px; opacity: 1;&quot;&gt;1&lt;/font&gt;&lt;font style=&quot;letter-spacing: 0px; direction: ltr; line-height: 16.932px; opacity: 1;&quot;&gt;мп&lt;/font&gt;&lt;/font&gt;&lt;/div&gt;" tags="Фон" id="aCWiB2YqxUfsmSvsJaBf-17">
          <mxCell style="verticalAlign=middle;align=center;overflow=width;vsdxID=17;fillColor=none;gradientColor=none;shape=stencil(nZBLDoAgDERP0z3SIyjew0SURgSD+Lu9kMZoXLhwN9O+tukAlrNpJg1SzDH4QW/URgNYgZTkjA4UkwJUgGXng+6DX1zLfmoymdXo17xh5zmRJ6Q42BWCfc2oJfdAr+Yv+AP9Cb7OJ3H/2JG1HNGz/84klThPVCc=);strokeColor=none;points=[];labelBackgroundColor=none;rounded=0;html=1;whiteSpace=wrap;" parent="1" vertex="1">
            <mxGeometry x="945" y="2248" width="192" height="40" as="geometry" />
          </mxCell>
        </UserObject>
        <UserObject label="&lt;div style=&quot;font-size: 1px&quot;&gt;&lt;font style=&quot;font-size: 14.11px; font-family: &amp;quot;Times New Roman&amp;quot;; direction: ltr; letter-spacing: 0px; line-height: 120%; opacity: 1;&quot;&gt;Додаток&lt;/font&gt;&lt;font style=&quot;font-size: 14.11px; font-family: &amp;quot;Times New Roman&amp;quot;; direction: ltr; letter-spacing: 0px; line-height: 120%; opacity: 1;&quot;&gt;&amp;nbsp;Б&lt;br&gt;&lt;/font&gt;&lt;/div&gt;" tags="Фон" id="aCWiB2YqxUfsmSvsJaBf-18">
          <mxCell style="verticalAlign=middle;align=center;overflow=width;vsdxID=18;fillColor=none;gradientColor=none;shape=stencil(nZBLDoAgDERP0z3SIyjew0SURgSD+Lu9kMZoXLhwN9O+tukAlrNpJg1SzDH4QW/URgNYgZTkjA4UkwJUgGXng+6DX1zLfmoymdXo17xh5zmRJ6Q42BWCfc2oJfdAr+Yv+AP9Cb7OJ3H/2JG1HNGz/84klThPVCc=);strokeColor=none;points=[];labelBackgroundColor=none;rounded=0;html=1;whiteSpace=wrap;" parent="1" vertex="1">
            <mxGeometry x="944.88" y="2288" width="192.12" height="30.89" as="geometry" />
          </mxCell>
        </UserObject>
        <UserObject label="&lt;div style=&quot;&quot;&gt;&lt;font face=&quot;Times New Roman&quot;&gt;&lt;span style=&quot;font-size: 25.4px;&quot;&gt;Еквайрингова платформа з використанням штучного інтелекту&lt;/span&gt;&lt;/font&gt;&lt;/div&gt;" tags="Фон" id="aCWiB2YqxUfsmSvsJaBf-19">
          <mxCell style="verticalAlign=middle;align=center;overflow=width;vsdxID=19;fillColor=none;gradientColor=none;shape=stencil(nZBLDoAgDERP0z3SIyjew0SURgSD+Lu9kMZoXLhwN9O+tukAlrNpJg1SzDH4QW/URgNYgZTkjA4UkwJUgGXng+6DX1zLfmoymdXo17xh5zmRJ6Q42BWCfc2oJfdAr+Yv+AP9Cb7OJ3H/2JG1HNGz/84klThPVCc=);strokeColor=none;points=[];labelBackgroundColor=none;rounded=0;html=1;whiteSpace=wrap;" parent="1" vertex="1">
            <mxGeometry x="1137.79" y="2168" width="496.07" height="80" as="geometry" />
          </mxCell>
        </UserObject>
        <UserObject label="&lt;div style=&quot;font-size: 1px&quot;&gt;&lt;font style=&quot;font-size: 19.76px; font-family: &amp;quot;Times New Roman&amp;quot;; direction: ltr; letter-spacing: 0px; line-height: 120%; opacity: 1;&quot;&gt;Діаграма прецедентів&lt;/font&gt;&lt;/div&gt;" tags="Фон" id="aCWiB2YqxUfsmSvsJaBf-20">
          <mxCell style="verticalAlign=middle;align=center;overflow=width;vsdxID=20;fillColor=none;gradientColor=none;shape=stencil(nZBLDoAgDERP0z3SIyjew0SURgSD+Lu9kMZoXLhwN9O+tukAlrNpJg1SzDH4QW/URgNYgZTkjA4UkwJUgGXng+6DX1zLfmoymdXo17xh5zmRJ6Q42BWCfc2oJfdAr+Yv+AP9Cb7OJ3H/2JG1HNGz/84klThPVCc=);strokeColor=none;points=[];labelBackgroundColor=none;rounded=0;html=1;whiteSpace=wrap;" parent="1" vertex="1">
            <mxGeometry x="1137" y="2248" width="496.86" height="70.89" as="geometry" />
          </mxCell>
        </UserObject>
        <mxCell id="sErE-y0yBxjQBSu1EWdT-1" value="" style="rounded=0;whiteSpace=wrap;html=1;" parent="1" vertex="1">
          <mxGeometry x="251.97" y="1291.34" width="1220.47" height="755.9" as="geometry" />
        </mxCell>
        <mxCell id="sErE-y0yBxjQBSu1EWdT-2" value="Платник послуг" style="shape=umlActor;verticalLabelPosition=bottom;verticalAlign=top;html=1;outlineConnect=0;" parent="1" vertex="1">
          <mxGeometry x="149.60999999999999" y="1583" width="30" height="60" as="geometry" />
        </mxCell>
        <mxCell id="sErE-y0yBxjQBSu1EWdT-3" value="Клієнт&lt;div&gt;платформи&lt;/div&gt;" style="shape=umlActor;verticalLabelPosition=bottom;verticalAlign=top;html=1;outlineConnect=0;" parent="1" vertex="1">
          <mxGeometry x="1539.3700000000001" y="2047.24" width="30" height="60" as="geometry" />
        </mxCell>
        <mxCell id="sErE-y0yBxjQBSu1EWdT-4" value="Адміністратор" style="shape=umlActor;verticalLabelPosition=bottom;verticalAlign=top;html=1;outlineConnect=0;" parent="1" vertex="1">
          <mxGeometry x="1523.6199999999997" y="1216.53" width="30" height="60" as="geometry" />
        </mxCell>
        <mxCell id="sErE-y0yBxjQBSu1EWdT-7" value="Сплатити послуги" style="ellipse;whiteSpace=wrap;html=1;" parent="1" vertex="1">
          <mxGeometry x="295.28" y="1573" width="120" height="80" as="geometry" />
        </mxCell>
        <mxCell id="sErE-y0yBxjQBSu1EWdT-8" value="Перерахувати кошти" style="ellipse;whiteSpace=wrap;html=1;" parent="1" vertex="1">
          <mxGeometry x="780" y="1566.93" width="120" height="80" as="geometry" />
        </mxCell>
        <mxCell id="sErE-y0yBxjQBSu1EWdT-10" value="" style="endArrow=none;html=1;rounded=0;entryX=0;entryY=0.5;entryDx=0;entryDy=0;" parent="1" source="sErE-y0yBxjQBSu1EWdT-2" target="sErE-y0yBxjQBSu1EWdT-7" edge="1">
          <mxGeometry width="50" height="50" relative="1" as="geometry">
            <mxPoint x="82.937" y="1562.937" as="sourcePoint" />
            <mxPoint x="298.937" y="1616.937" as="targetPoint" />
          </mxGeometry>
        </mxCell>
        <mxCell id="sErE-y0yBxjQBSu1EWdT-11" value="" style="endArrow=block;dashed=1;endFill=0;endSize=12;html=1;rounded=0;entryX=0;entryY=0.5;entryDx=0;entryDy=0;exitX=1;exitY=0.5;exitDx=0;exitDy=0;" parent="1" source="sErE-y0yBxjQBSu1EWdT-7" target="sErE-y0yBxjQBSu1EWdT-8" edge="1">
          <mxGeometry width="160" relative="1" as="geometry">
            <mxPoint x="614" y="1720" as="sourcePoint" />
            <mxPoint x="774" y="1720" as="targetPoint" />
          </mxGeometry>
        </mxCell>
        <mxCell id="sErE-y0yBxjQBSu1EWdT-12" value="include" style="edgeLabel;html=1;align=center;verticalAlign=middle;resizable=0;points=[];" parent="sErE-y0yBxjQBSu1EWdT-11" vertex="1" connectable="0">
          <mxGeometry x="0.1638" y="3" relative="1" as="geometry">
            <mxPoint as="offset" />
          </mxGeometry>
        </mxCell>
        <mxCell id="sErE-y0yBxjQBSu1EWdT-13" value="Авторизуватись а особистому кабінеті" style="ellipse;whiteSpace=wrap;html=1;" parent="1" vertex="1">
          <mxGeometry x="977.5000000000003" y="1870.08" width="120" height="80" as="geometry" />
        </mxCell>
        <mxCell id="sErE-y0yBxjQBSu1EWdT-14" value="" style="endArrow=none;html=1;rounded=0;entryX=1;entryY=1;entryDx=0;entryDy=0;" parent="1" target="sErE-y0yBxjQBSu1EWdT-13" edge="1">
          <mxGeometry width="50" height="50" relative="1" as="geometry">
            <mxPoint x="1528" y="2077" as="sourcePoint" />
            <mxPoint x="1314" y="2102" as="targetPoint" />
          </mxGeometry>
        </mxCell>
        <mxCell id="sErE-y0yBxjQBSu1EWdT-15" value="Завести особистий&lt;br&gt;кабінет" style="ellipse;whiteSpace=wrap;html=1;" parent="1" vertex="1">
          <mxGeometry x="858.27" y="1741.42" width="120" height="80" as="geometry" />
        </mxCell>
        <mxCell id="sErE-y0yBxjQBSu1EWdT-16" value="" style="endArrow=none;html=1;rounded=0;entryX=1;entryY=1;entryDx=0;entryDy=0;" parent="1" target="sErE-y0yBxjQBSu1EWdT-15" edge="1">
          <mxGeometry width="50" height="50" relative="1" as="geometry">
            <mxPoint x="1531.937" y="2080.937" as="sourcePoint" />
            <mxPoint x="1424.937" y="1996.937" as="targetPoint" />
          </mxGeometry>
        </mxCell>
        <mxCell id="sErE-y0yBxjQBSu1EWdT-17" value="Створити &lt;br&gt;посилання&lt;div&gt;на інвойс&lt;/div&gt;" style="ellipse;whiteSpace=wrap;html=1;" parent="1" vertex="1">
          <mxGeometry x="1153.54" y="1677.16" width="120" height="80" as="geometry" />
        </mxCell>
        <mxCell id="sErE-y0yBxjQBSu1EWdT-18" value="" style="endArrow=none;html=1;rounded=0;entryX=1;entryY=1;entryDx=0;entryDy=0;" parent="1" target="sErE-y0yBxjQBSu1EWdT-17" edge="1">
          <mxGeometry width="50" height="50" relative="1" as="geometry">
            <mxPoint x="1535.8739999999998" y="2084.874" as="sourcePoint" />
            <mxPoint x="1424.937" y="1870.937" as="targetPoint" />
          </mxGeometry>
        </mxCell>
        <mxCell id="sErE-y0yBxjQBSu1EWdT-19" value="Отримати &lt;br&gt;звітність" style="ellipse;whiteSpace=wrap;html=1;" parent="1" vertex="1">
          <mxGeometry x="393.7" y="1775.59" width="120" height="80" as="geometry" />
        </mxCell>
        <mxCell id="sErE-y0yBxjQBSu1EWdT-20" value="" style="endArrow=none;html=1;rounded=0;entryX=1;entryY=1;entryDx=0;entryDy=0;" parent="1" target="sErE-y0yBxjQBSu1EWdT-19" edge="1">
          <mxGeometry width="50" height="50" relative="1" as="geometry">
            <mxPoint x="1539.8109999999997" y="2088.8109999999997" as="sourcePoint" />
            <mxPoint x="1224.937" y="2000.937" as="targetPoint" />
          </mxGeometry>
        </mxCell>
        <mxCell id="sErE-y0yBxjQBSu1EWdT-21" value="Повернути кошти" style="ellipse;whiteSpace=wrap;html=1;" parent="1" vertex="1">
          <mxGeometry x="1334.64" y="1573" width="120" height="80" as="geometry" />
        </mxCell>
        <mxCell id="sErE-y0yBxjQBSu1EWdT-23" value="" style="endArrow=none;html=1;rounded=0;entryX=1;entryY=0.5;entryDx=0;entryDy=0;" parent="1" target="sErE-y0yBxjQBSu1EWdT-21" edge="1">
          <mxGeometry width="50" height="50" relative="1" as="geometry">
            <mxPoint x="1535.8739999999998" y="2084.874" as="sourcePoint" />
            <mxPoint x="1424.937" y="1870.937" as="targetPoint" />
          </mxGeometry>
        </mxCell>
        <mxCell id="sErE-y0yBxjQBSu1EWdT-24" value="" style="endArrow=block;dashed=1;endFill=0;endSize=12;html=1;rounded=0;entryX=1;entryY=0.5;entryDx=0;entryDy=0;exitX=0;exitY=0.5;exitDx=0;exitDy=0;" parent="1" source="sErE-y0yBxjQBSu1EWdT-21" target="sErE-y0yBxjQBSu1EWdT-8" edge="1">
          <mxGeometry width="160" relative="1" as="geometry">
            <mxPoint x="783.937" y="1610.937" as="sourcePoint" />
            <mxPoint x="418.937" y="1616.937" as="targetPoint" />
          </mxGeometry>
        </mxCell>
        <mxCell id="sErE-y0yBxjQBSu1EWdT-25" value="include" style="edgeLabel;html=1;align=center;verticalAlign=middle;resizable=0;points=[];" parent="sErE-y0yBxjQBSu1EWdT-24" vertex="1" connectable="0">
          <mxGeometry x="0.1638" y="3" relative="1" as="geometry">
            <mxPoint as="offset" />
          </mxGeometry>
        </mxCell>
        <mxCell id="sErE-y0yBxjQBSu1EWdT-26" value="" style="endArrow=none;html=1;rounded=0;entryX=1;entryY=0.5;entryDx=0;entryDy=0;" parent="1" target="sErE-y0yBxjQBSu1EWdT-21" edge="1">
          <mxGeometry width="50" height="50" relative="1" as="geometry">
            <mxPoint x="1495" y="1260" as="sourcePoint" />
            <mxPoint x="1454.937" y="1610.937" as="targetPoint" />
          </mxGeometry>
        </mxCell>
        <mxCell id="sErE-y0yBxjQBSu1EWdT-27" value="Отримати ключ доступу для інтеграції" style="ellipse;whiteSpace=wrap;html=1;" parent="1" vertex="1">
          <mxGeometry x="338.5799999999999" y="1921.26" width="120" height="80" as="geometry" />
        </mxCell>
        <mxCell id="sErE-y0yBxjQBSu1EWdT-28" value="" style="endArrow=none;html=1;rounded=0;entryX=0.932;entryY=0.761;entryDx=0;entryDy=0;entryPerimeter=0;" parent="1" target="sErE-y0yBxjQBSu1EWdT-27" edge="1">
          <mxGeometry width="50" height="50" relative="1" as="geometry">
            <mxPoint x="1535.8739999999998" y="2084.874" as="sourcePoint" />
            <mxPoint x="1424.937" y="1870.937" as="targetPoint" />
          </mxGeometry>
        </mxCell>
        <mxCell id="sErE-y0yBxjQBSu1EWdT-29" value="Авторизуватись&lt;div&gt;в адміністративному&lt;br&gt;порталі&lt;/div&gt;" style="ellipse;whiteSpace=wrap;html=1;" parent="1" vertex="1">
          <mxGeometry x="1173.23" y="1387.0799999999997" width="120" height="80" as="geometry" />
        </mxCell>
        <mxCell id="sErE-y0yBxjQBSu1EWdT-30" value="" style="endArrow=none;html=1;rounded=0;entryX=1;entryY=0.5;entryDx=0;entryDy=0;" parent="1" target="sErE-y0yBxjQBSu1EWdT-29" edge="1">
          <mxGeometry width="50" height="50" relative="1" as="geometry">
            <mxPoint x="1498.937" y="1263.937" as="sourcePoint" />
            <mxPoint x="1454.937" y="1610.937" as="targetPoint" />
          </mxGeometry>
        </mxCell>
        <mxCell id="sErE-y0yBxjQBSu1EWdT-31" value="Переглянути список платежів" style="ellipse;whiteSpace=wrap;html=1;" parent="1" vertex="1">
          <mxGeometry x="996.06" y="1643" width="120" height="80" as="geometry" />
        </mxCell>
        <mxCell id="sErE-y0yBxjQBSu1EWdT-32" value="" style="endArrow=none;html=1;rounded=0;entryX=1;entryY=0;entryDx=0;entryDy=0;" parent="1" target="sErE-y0yBxjQBSu1EWdT-31" edge="1">
          <mxGeometry width="50" height="50" relative="1" as="geometry">
            <mxPoint x="1502.8739999999998" y="1267.8739999999998" as="sourcePoint" />
            <mxPoint x="1449.937" y="1350.937" as="targetPoint" />
          </mxGeometry>
        </mxCell>
        <mxCell id="sErE-y0yBxjQBSu1EWdT-33" value="" style="endArrow=none;html=1;rounded=0;entryX=1;entryY=1;entryDx=0;entryDy=0;" parent="1" target="sErE-y0yBxjQBSu1EWdT-31" edge="1">
          <mxGeometry width="50" height="50" relative="1" as="geometry">
            <mxPoint x="1535.8739999999998" y="2084.874" as="sourcePoint" />
            <mxPoint x="1074.937" y="1819.937" as="targetPoint" />
          </mxGeometry>
        </mxCell>
        <mxCell id="sErE-y0yBxjQBSu1EWdT-34" value="" style="endArrow=block;dashed=1;endFill=0;endSize=12;html=1;rounded=0;entryX=0;entryY=1;entryDx=0;entryDy=0;exitX=0.5;exitY=0;exitDx=0;exitDy=0;" parent="1" source="sErE-y0yBxjQBSu1EWdT-19" target="sErE-y0yBxjQBSu1EWdT-31" edge="1">
          <mxGeometry width="160" relative="1" as="geometry">
            <mxPoint x="418.937" y="1616.937" as="sourcePoint" />
            <mxPoint x="783.937" y="1610.937" as="targetPoint" />
          </mxGeometry>
        </mxCell>
        <mxCell id="sErE-y0yBxjQBSu1EWdT-35" value="extends" style="edgeLabel;html=1;align=center;verticalAlign=middle;resizable=0;points=[];" parent="sErE-y0yBxjQBSu1EWdT-34" vertex="1" connectable="0">
          <mxGeometry x="0.1638" y="3" relative="1" as="geometry">
            <mxPoint as="offset" />
          </mxGeometry>
        </mxCell>
        <mxCell id="sErE-y0yBxjQBSu1EWdT-36" value="Налаштувати клієнта системи" style="ellipse;whiteSpace=wrap;html=1;" parent="1" vertex="1">
          <mxGeometry x="885.5" y="1460.63" width="120" height="80" as="geometry" />
        </mxCell>
        <mxCell id="sErE-y0yBxjQBSu1EWdT-37" value="" style="endArrow=none;html=1;rounded=0;entryX=0.5;entryY=0;entryDx=0;entryDy=0;" parent="1" target="sErE-y0yBxjQBSu1EWdT-36" edge="1">
          <mxGeometry width="50" height="50" relative="1" as="geometry">
            <mxPoint x="1502.8739999999998" y="1267.8739999999998" as="sourcePoint" />
            <mxPoint x="1379.937" y="1342.937" as="targetPoint" />
          </mxGeometry>
        </mxCell>
        <mxCell id="sErE-y0yBxjQBSu1EWdT-38" value="" style="endArrow=none;html=1;rounded=0;entryX=0.773;entryY=0.083;entryDx=0;entryDy=0;entryPerimeter=0;" parent="1" target="sErE-y0yBxjQBSu1EWdT-17" edge="1">
          <mxGeometry width="50" height="50" relative="1" as="geometry">
            <mxPoint x="1502.8739999999998" y="1267.8739999999998" as="sourcePoint" />
            <mxPoint x="1379.937" y="1342.937" as="targetPoint" />
          </mxGeometry>
        </mxCell>
        <mxCell id="sErE-y0yBxjQBSu1EWdT-39" value="Заблокувати клієнта" style="ellipse;whiteSpace=wrap;html=1;" parent="1" vertex="1">
          <mxGeometry x="629.9200000000001" y="1433.07" width="120" height="80" as="geometry" />
        </mxCell>
        <mxCell id="sErE-y0yBxjQBSu1EWdT-40" value="" style="endArrow=none;html=1;rounded=0;entryX=1;entryY=0;entryDx=0;entryDy=0;" parent="1" target="sErE-y0yBxjQBSu1EWdT-39" edge="1">
          <mxGeometry width="50" height="50" relative="1" as="geometry">
            <mxPoint x="1492" y="1264" as="sourcePoint" />
            <mxPoint x="1161.937" y="1306.937" as="targetPoint" />
          </mxGeometry>
        </mxCell>
        <mxCell id="sErE-y0yBxjQBSu1EWdT-41" value="Відхилений платіж" style="ellipse;whiteSpace=wrap;html=1;" parent="1" vertex="1">
          <mxGeometry x="476.38" y="1486.93" width="120" height="80" as="geometry" />
        </mxCell>
        <mxCell id="sErE-y0yBxjQBSu1EWdT-42" value="Платіж авторизований" style="ellipse;whiteSpace=wrap;html=1;" parent="1" vertex="1">
          <mxGeometry x="543.307" y="1657.4769999999999" width="120" height="80" as="geometry" />
        </mxCell>
        <mxCell id="sErE-y0yBxjQBSu1EWdT-43" value="" style="endArrow=block;dashed=1;endFill=0;endSize=12;html=1;rounded=0;entryX=1;entryY=1;entryDx=0;entryDy=0;exitX=0;exitY=0.5;exitDx=0;exitDy=0;" parent="1" source="sErE-y0yBxjQBSu1EWdT-42" target="sErE-y0yBxjQBSu1EWdT-7" edge="1">
          <mxGeometry width="160" relative="1" as="geometry">
            <mxPoint x="839.937" y="1928.937" as="sourcePoint" />
            <mxPoint x="989.937" y="1714.937" as="targetPoint" />
          </mxGeometry>
        </mxCell>
        <mxCell id="sErE-y0yBxjQBSu1EWdT-44" value="extends" style="edgeLabel;html=1;align=center;verticalAlign=middle;resizable=0;points=[];" parent="sErE-y0yBxjQBSu1EWdT-43" vertex="1" connectable="0">
          <mxGeometry x="0.1638" y="3" relative="1" as="geometry">
            <mxPoint as="offset" />
          </mxGeometry>
        </mxCell>
        <mxCell id="sErE-y0yBxjQBSu1EWdT-45" value="" style="endArrow=block;dashed=1;endFill=0;endSize=12;html=1;rounded=0;entryX=1;entryY=0;entryDx=0;entryDy=0;" parent="1" target="sErE-y0yBxjQBSu1EWdT-7" edge="1">
          <mxGeometry width="160" relative="1" as="geometry">
            <mxPoint x="485" y="1556" as="sourcePoint" />
            <mxPoint x="401.937" y="1644.937" as="targetPoint" />
          </mxGeometry>
        </mxCell>
        <mxCell id="sErE-y0yBxjQBSu1EWdT-46" value="extends" style="edgeLabel;html=1;align=center;verticalAlign=middle;resizable=0;points=[];" parent="sErE-y0yBxjQBSu1EWdT-45" vertex="1" connectable="0">
          <mxGeometry x="0.1638" y="3" relative="1" as="geometry">
            <mxPoint as="offset" />
          </mxGeometry>
        </mxCell>
        <mxCell id="sErE-y0yBxjQBSu1EWdT-47" value="" style="endArrow=block;dashed=1;endFill=0;endSize=12;html=1;rounded=0;entryX=0.021;entryY=0.636;entryDx=0;entryDy=0;exitX=1;exitY=0;exitDx=0;exitDy=0;entryPerimeter=0;" parent="1" source="sErE-y0yBxjQBSu1EWdT-17" target="sErE-y0yBxjQBSu1EWdT-21" edge="1">
          <mxGeometry width="160" relative="1" as="geometry">
            <mxPoint x="839.937" y="1928.937" as="sourcePoint" />
            <mxPoint x="989.937" y="1714.937" as="targetPoint" />
          </mxGeometry>
        </mxCell>
        <mxCell id="sErE-y0yBxjQBSu1EWdT-48" value="extends" style="edgeLabel;html=1;align=center;verticalAlign=middle;resizable=0;points=[];" parent="sErE-y0yBxjQBSu1EWdT-47" vertex="1" connectable="0">
          <mxGeometry x="0.1638" y="3" relative="1" as="geometry">
            <mxPoint as="offset" />
          </mxGeometry>
        </mxCell>
        <mxCell id="sErE-y0yBxjQBSu1EWdT-49" value="" style="endArrow=block;dashed=1;endFill=0;endSize=12;html=1;rounded=0;entryX=0;entryY=0.5;entryDx=0;entryDy=0;exitX=1;exitY=0.5;exitDx=0;exitDy=0;" parent="1" source="sErE-y0yBxjQBSu1EWdT-19" target="sErE-y0yBxjQBSu1EWdT-13" edge="1">
          <mxGeometry width="160" relative="1" as="geometry">
            <mxPoint x="839.937" y="1877.937" as="sourcePoint" />
            <mxPoint x="989.937" y="1714.937" as="targetPoint" />
          </mxGeometry>
        </mxCell>
        <mxCell id="sErE-y0yBxjQBSu1EWdT-50" value="extends" style="edgeLabel;html=1;align=center;verticalAlign=middle;resizable=0;points=[];" parent="sErE-y0yBxjQBSu1EWdT-49" vertex="1" connectable="0">
          <mxGeometry x="0.1638" y="3" relative="1" as="geometry">
            <mxPoint as="offset" />
          </mxGeometry>
        </mxCell>
        <mxCell id="sErE-y0yBxjQBSu1EWdT-51" value="" style="endArrow=block;dashed=1;endFill=0;endSize=12;html=1;rounded=0;entryX=0;entryY=1;entryDx=0;entryDy=0;exitX=1;exitY=0.5;exitDx=0;exitDy=0;" parent="1" source="sErE-y0yBxjQBSu1EWdT-27" target="sErE-y0yBxjQBSu1EWdT-13" edge="1">
          <mxGeometry width="160" relative="1" as="geometry">
            <mxPoint x="899.937" y="1917.937" as="sourcePoint" />
            <mxPoint x="1133.937" y="1960.937" as="targetPoint" />
          </mxGeometry>
        </mxCell>
        <mxCell id="sErE-y0yBxjQBSu1EWdT-52" value="extends" style="edgeLabel;html=1;align=center;verticalAlign=middle;resizable=0;points=[];" parent="sErE-y0yBxjQBSu1EWdT-51" vertex="1" connectable="0">
          <mxGeometry x="0.1638" y="3" relative="1" as="geometry">
            <mxPoint as="offset" />
          </mxGeometry>
        </mxCell>
        <mxCell id="sErE-y0yBxjQBSu1EWdT-53" value="" style="endArrow=block;dashed=1;endFill=0;endSize=12;html=1;rounded=0;entryX=0.767;entryY=0.907;entryDx=0;entryDy=0;exitX=0;exitY=0;exitDx=0;exitDy=0;entryPerimeter=0;" parent="1" source="sErE-y0yBxjQBSu1EWdT-13" target="sErE-y0yBxjQBSu1EWdT-15" edge="1">
          <mxGeometry width="160" relative="1" as="geometry">
            <mxPoint x="899.937" y="1917.937" as="sourcePoint" />
            <mxPoint x="1133.937" y="1960.937" as="targetPoint" />
          </mxGeometry>
        </mxCell>
        <mxCell id="sErE-y0yBxjQBSu1EWdT-54" value="extends" style="edgeLabel;html=1;align=center;verticalAlign=middle;resizable=0;points=[];" parent="sErE-y0yBxjQBSu1EWdT-53" vertex="1" connectable="0">
          <mxGeometry x="0.1638" y="3" relative="1" as="geometry">
            <mxPoint as="offset" />
          </mxGeometry>
        </mxCell>
        <mxCell id="sErE-y0yBxjQBSu1EWdT-55" value="" style="endArrow=block;dashed=1;endFill=0;endSize=12;html=1;rounded=0;entryX=0.5;entryY=0;entryDx=0;entryDy=0;exitX=0.5;exitY=1;exitDx=0;exitDy=0;" parent="1" source="sErE-y0yBxjQBSu1EWdT-17" target="sErE-y0yBxjQBSu1EWdT-13" edge="1">
          <mxGeometry width="160" relative="1" as="geometry">
            <mxPoint x="903.874" y="1921.874" as="sourcePoint" />
            <mxPoint x="1137.874" y="1964.874" as="targetPoint" />
          </mxGeometry>
        </mxCell>
        <mxCell id="sErE-y0yBxjQBSu1EWdT-56" value="extends" style="edgeLabel;html=1;align=center;verticalAlign=middle;resizable=0;points=[];" parent="sErE-y0yBxjQBSu1EWdT-55" vertex="1" connectable="0">
          <mxGeometry x="0.1638" y="3" relative="1" as="geometry">
            <mxPoint as="offset" />
          </mxGeometry>
        </mxCell>
        <mxCell id="sErE-y0yBxjQBSu1EWdT-57" value="" style="endArrow=block;dashed=1;endFill=0;endSize=12;html=1;rounded=0;entryX=0.5;entryY=1;entryDx=0;entryDy=0;exitX=0.385;exitY=0.031;exitDx=0;exitDy=0;exitPerimeter=0;" parent="1" source="sErE-y0yBxjQBSu1EWdT-17" target="sErE-y0yBxjQBSu1EWdT-29" edge="1">
          <mxGeometry width="160" relative="1" as="geometry">
            <mxPoint x="907.811" y="1925.811" as="sourcePoint" />
            <mxPoint x="1141.811" y="1968.811" as="targetPoint" />
          </mxGeometry>
        </mxCell>
        <mxCell id="sErE-y0yBxjQBSu1EWdT-58" value="extends" style="edgeLabel;html=1;align=center;verticalAlign=middle;resizable=0;points=[];" parent="sErE-y0yBxjQBSu1EWdT-57" vertex="1" connectable="0">
          <mxGeometry x="0.1638" y="3" relative="1" as="geometry">
            <mxPoint as="offset" />
          </mxGeometry>
        </mxCell>
        <mxCell id="sErE-y0yBxjQBSu1EWdT-59" value="" style="endArrow=block;dashed=1;endFill=0;endSize=12;html=1;rounded=0;entryX=0;entryY=0.5;entryDx=0;entryDy=0;exitX=1;exitY=0.5;exitDx=0;exitDy=0;" parent="1" source="sErE-y0yBxjQBSu1EWdT-36" target="sErE-y0yBxjQBSu1EWdT-29" edge="1">
          <mxGeometry width="160" relative="1" as="geometry">
            <mxPoint x="911.748" y="1929.748" as="sourcePoint" />
            <mxPoint x="1145.748" y="1972.748" as="targetPoint" />
          </mxGeometry>
        </mxCell>
        <mxCell id="sErE-y0yBxjQBSu1EWdT-60" value="extends" style="edgeLabel;html=1;align=center;verticalAlign=middle;resizable=0;points=[];" parent="sErE-y0yBxjQBSu1EWdT-59" vertex="1" connectable="0">
          <mxGeometry x="0.1638" y="3" relative="1" as="geometry">
            <mxPoint as="offset" />
          </mxGeometry>
        </mxCell>
        <mxCell id="sErE-y0yBxjQBSu1EWdT-61" value="" style="endArrow=block;dashed=1;endFill=0;endSize=12;html=1;rounded=0;entryX=0.033;entryY=0.327;entryDx=0;entryDy=0;exitX=1;exitY=0.5;exitDx=0;exitDy=0;entryPerimeter=0;" parent="1" source="sErE-y0yBxjQBSu1EWdT-39" target="sErE-y0yBxjQBSu1EWdT-29" edge="1">
          <mxGeometry width="160" relative="1" as="geometry">
            <mxPoint x="1009.937" y="1456.937" as="sourcePoint" />
            <mxPoint x="1235.937" y="1378.937" as="targetPoint" />
          </mxGeometry>
        </mxCell>
        <mxCell id="sErE-y0yBxjQBSu1EWdT-62" value="extends" style="edgeLabel;html=1;align=center;verticalAlign=middle;resizable=0;points=[];" parent="sErE-y0yBxjQBSu1EWdT-61" vertex="1" connectable="0">
          <mxGeometry x="0.1638" y="3" relative="1" as="geometry">
            <mxPoint as="offset" />
          </mxGeometry>
        </mxCell>
        <mxCell id="sErE-y0yBxjQBSu1EWdT-63" value="" style="endArrow=block;dashed=1;endFill=0;endSize=12;html=1;rounded=0;entryX=1;entryY=0;entryDx=0;entryDy=0;exitX=0.5;exitY=1;exitDx=0;exitDy=0;" parent="1" source="sErE-y0yBxjQBSu1EWdT-21" target="sErE-y0yBxjQBSu1EWdT-13" edge="1">
          <mxGeometry width="160" relative="1" as="geometry">
            <mxPoint x="1279.937" y="1683.937" as="sourcePoint" />
            <mxPoint x="1351.937" y="1638.937" as="targetPoint" />
          </mxGeometry>
        </mxCell>
        <mxCell id="sErE-y0yBxjQBSu1EWdT-64" value="extends" style="edgeLabel;html=1;align=center;verticalAlign=middle;resizable=0;points=[];" parent="sErE-y0yBxjQBSu1EWdT-63" vertex="1" connectable="0">
          <mxGeometry x="0.1638" y="3" relative="1" as="geometry">
            <mxPoint as="offset" />
          </mxGeometry>
        </mxCell>
        <mxCell id="sErE-y0yBxjQBSu1EWdT-65" value="Вивантажити звітність клієнту" style="ellipse;whiteSpace=wrap;html=1;" parent="1" vertex="1">
          <mxGeometry x="507.87" y="1330.71" width="120" height="80" as="geometry" />
        </mxCell>
        <mxCell id="sErE-y0yBxjQBSu1EWdT-66" value="" style="endArrow=none;html=1;rounded=0;entryX=1;entryY=0;entryDx=0;entryDy=0;" parent="1" target="sErE-y0yBxjQBSu1EWdT-65" edge="1">
          <mxGeometry width="50" height="50" relative="1" as="geometry">
            <mxPoint x="1495.937" y="1267.937" as="sourcePoint" />
            <mxPoint x="930.937" y="1348.937" as="targetPoint" />
          </mxGeometry>
        </mxCell>
        <mxCell id="sErE-y0yBxjQBSu1EWdT-67" value="" style="endArrow=block;dashed=1;endFill=0;endSize=12;html=1;rounded=0;entryX=0;entryY=0;entryDx=0;entryDy=0;exitX=0.946;exitY=0.288;exitDx=0;exitDy=0;exitPerimeter=0;" parent="1" source="sErE-y0yBxjQBSu1EWdT-65" target="sErE-y0yBxjQBSu1EWdT-29" edge="1">
          <mxGeometry width="160" relative="1" as="geometry">
            <mxPoint x="948.937" y="1376.937" as="sourcePoint" />
            <mxPoint x="1239.8739999999998" y="1382.8739999999998" as="targetPoint" />
          </mxGeometry>
        </mxCell>
        <mxCell id="sErE-y0yBxjQBSu1EWdT-68" value="extends" style="edgeLabel;html=1;align=center;verticalAlign=middle;resizable=0;points=[];" parent="sErE-y0yBxjQBSu1EWdT-67" vertex="1" connectable="0">
          <mxGeometry x="0.1638" y="3" relative="1" as="geometry">
            <mxPoint as="offset" />
          </mxGeometry>
        </mxCell>
      </root>
    </mxGraphModel>
  </diagram>
</mxfile>
